<svg width="184" height="22" viewBox="0 0 184 22" fill="none" xmlns="http://www.w3.org/2000/svg">
<path d="M0.016 21V0.391998H3.504V21H0.016ZM7.54725 21V0.391998H10.6193L21.3713 15.56V0.391998H24.8273V21H21.7553L11.0353 5.864V21H7.54725ZM35.131 21.32C32.4643 21.32 30.3203 20.9787 28.699 20.296V17.224C29.6163 17.5653 30.5977 17.8427 31.643 18.056C32.7097 18.2693 33.7657 18.376 34.811 18.376C36.4537 18.376 37.6803 18.184 38.491 17.8C39.323 17.416 39.739 16.648 39.739 15.496C39.739 14.792 39.5683 14.2267 39.227 13.8C38.8857 13.3733 38.3203 13.0107 37.531 12.712C36.7417 12.392 35.6537 12.0613 34.267 11.72C32.0483 11.144 30.491 10.4187 29.595 9.544C28.699 8.648 28.251 7.42133 28.251 5.864C28.251 4.05067 28.9123 2.632 30.235 1.608C31.5577 0.583999 33.531 0.0719986 36.155 0.0719986C37.3497 0.0719986 38.4697 0.157332 39.515 0.327999C40.5817 0.498666 41.4137 0.690666 42.011 0.903999V3.976C40.3897 3.35733 38.5977 3.048 36.635 3.048C35.099 3.048 33.9043 3.25067 33.051 3.656C32.1977 4.06133 31.771 4.79733 31.771 5.864C31.771 6.48267 31.9203 6.984 32.219 7.368C32.5177 7.752 33.0297 8.08267 33.755 8.36C34.5017 8.63733 35.5257 8.94667 36.827 9.288C38.5123 9.71467 39.8137 10.2267 40.731 10.824C41.6697 11.4 42.3203 12.0827 42.683 12.872C43.067 13.64 43.259 14.5147 43.259 15.496C43.259 17.3093 42.587 18.7387 41.243 19.784C39.899 20.808 37.8617 21.32 35.131 21.32ZM50.7038 21V3.112H44.1118V0.391998H60.7518V3.112H54.1918V21H50.7038ZM63.5473 21V0.391998H73.0193C75.3233 0.391998 76.9979 0.989332 78.0433 2.184C79.1099 3.35733 79.6433 4.95733 79.6433 6.984C79.6433 8.43467 79.2806 9.672 78.5553 10.696C77.8299 11.72 76.7846 12.4347 75.4193 12.84C75.8033 13.1173 76.1019 13.416 76.3153 13.736C76.5286 14.056 76.7419 14.4827 76.9553 15.016L79.5473 21H75.9633L73.4353 15.24C73.2006 14.6853 72.9126 14.2907 72.5713 14.056C72.2513 13.8213 71.6966 13.704 70.9073 13.704H67.0353V21H63.5473ZM67.0353 10.888H72.0913C73.3499 10.888 74.3419 10.5787 75.0673 9.96C75.7926 9.34133 76.1553 8.34933 76.1553 6.984C76.1553 4.40267 74.9073 3.112 72.4113 3.112H67.0353V10.888ZM91.8785 21.32C89.0412 21.32 86.8332 20.6373 85.2545 19.272C83.6972 17.9067 82.9185 15.9333 82.9185 13.352V0.391998H86.4065V13.224C86.4065 14.952 86.8758 16.2427 87.8145 17.096C88.7745 17.9493 90.1292 18.376 91.8785 18.376C93.6065 18.376 94.9398 17.9493 95.8785 17.096C96.8385 16.2427 97.3185 14.952 97.3185 13.224V0.391998H100.775V13.352C100.775 15.9333 99.9958 17.9067 98.4385 19.272C96.8812 20.6373 94.6945 21.32 91.8785 21.32ZM104.641 21V0.391998H108.225L114.753 13.736L121.249 0.391998H124.833V21H121.377V6.056L115.809 17.448H113.697L108.097 6.056V21H104.641ZM128.86 21V0.391998H143.228V3.112H132.348V9.352H142.044V12.04H132.348V18.312H143.228V21H128.86ZM146.454 21V0.391998H149.526L160.278 15.56V0.391998H163.734V21H160.662L149.942 5.864V21H146.454ZM173.141 21V3.112H166.549V0.391998H183.189V3.112H176.629V21H173.141Z" fill="white"/>
</svg>
